<svg id="visual" viewBox="0 0 1920 1080" width="1920" height="1080" xmlns="http://www.w3.org/2000/svg" xmlns:xlink="http://www.w3.org/1999/xlink" version="1.1"><path d="M0 357L29.2 373.3C58.3 389.7 116.7 422.3 174.8 442.2C233 462 291 469 349.2 456.3C407.3 443.7 465.7 411.3 523.8 420.3C582 429.3 640 479.7 698.2 499.5C756.3 519.3 814.7 508.7 872.8 479.8C931 451 989 404 1047.2 407.5C1105.3 411 1163.7 465 1221.8 463.3C1280 461.7 1338 404.3 1396.2 366.7C1454.3 329 1512.7 311 1570.8 341.5C1629 372 1687 451 1745.2 470.7C1803.3 490.3 1861.7 450.7 1890.8 430.8L1920 411L1920 0L1890.8 0C1861.7 0 1803.3 0 1745.2 0C1687 0 1629 0 1570.8 0C1512.7 0 1454.3 0 1396.2 0C1338 0 1280 0 1221.8 0C1163.7 0 1105.3 0 1047.2 0C989 0 931 0 872.8 0C814.7 0 756.3 0 698.2 0C640 0 582 0 523.8 0C465.7 0 407.3 0 349.2 0C291 0 233 0 174.8 0C116.7 0 58.3 0 29.2 0L0 0Z" fill="#d6c6ff"></path><path d="M0 768L29.2 766.2C58.3 764.3 116.7 760.7 174.8 776.8C233 793 291 829 349.2 848.8C407.3 868.7 465.7 872.3 523.8 861.5C582 850.7 640 825.3 698.2 821.7C756.3 818 814.7 836 872.8 830.7C931 825.3 989 796.7 1047.2 802.2C1105.3 807.7 1163.7 847.3 1221.8 859.8C1280 872.3 1338 857.7 1396.2 834.2C1454.3 810.7 1512.7 778.3 1570.8 776.7C1629 775 1687 804 1745.2 818.5C1803.3 833 1861.7 833 1890.8 833L1920 833L1920 409L1890.8 428.8C1861.7 448.7 1803.3 488.3 1745.2 468.7C1687 449 1629 370 1570.8 339.5C1512.7 309 1454.3 327 1396.2 364.7C1338 402.3 1280 459.7 1221.8 461.3C1163.7 463 1105.3 409 1047.2 405.5C989 402 931 449 872.8 477.8C814.7 506.7 756.3 517.3 698.2 497.5C640 477.7 582 427.3 523.8 418.3C465.7 409.3 407.3 441.7 349.2 454.3C291 467 233 460 174.8 440.2C116.7 420.3 58.3 387.7 29.2 371.3L0 355Z" fill="#e5e1ff"></path><path d="M0 1081L29.2 1081C58.3 1081 116.7 1081 174.8 1081C233 1081 291 1081 349.2 1081C407.3 1081 465.7 1081 523.8 1081C582 1081 640 1081 698.2 1081C756.3 1081 814.7 1081 872.8 1081C931 1081 989 1081 1047.2 1081C1105.3 1081 1163.7 1081 1221.8 1081C1280 1081 1338 1081 1396.2 1081C1454.3 1081 1512.7 1081 1570.8 1081C1629 1081 1687 1081 1745.2 1081C1803.3 1081 1861.7 1081 1890.8 1081L1920 1081L1920 831L1890.8 831C1861.7 831 1803.3 831 1745.2 816.5C1687 802 1629 773 1570.8 774.7C1512.7 776.3 1454.3 808.7 1396.2 832.2C1338 855.7 1280 870.3 1221.8 857.8C1163.7 845.3 1105.3 805.7 1047.2 800.2C989 794.7 931 823.3 872.8 828.7C814.7 834 756.3 816 698.2 819.7C640 823.3 582 848.7 523.8 859.5C465.7 870.3 407.3 866.7 349.2 846.8C291 827 233 791 174.8 774.8C116.7 758.7 58.3 762.3 29.2 764.2L0 766Z" fill="#fafaff"></path></svg>