<svg id="visual" viewBox="0 0 1920 1080" width="1920" height="1080" xmlns="http://www.w3.org/2000/svg" xmlns:xlink="http://www.w3.org/1999/xlink" version="1.1"><path d="M0 433L32 465.3C64 497.7 128 562.3 192 575C256 587.7 320 548.3 384 498C448 447.7 512 386.3 576 382.7C640 379 704 433 768 402.3C832 371.7 896 256.3 960 258.2C1024 260 1088 379 1152 427.7C1216 476.3 1280 454.7 1344 454.7C1408 454.7 1472 476.3 1536 458.3C1600 440.3 1664 382.7 1728 353.8C1792 325 1856 325 1888 325L1920 325L1920 0L1888 0C1856 0 1792 0 1728 0C1664 0 1600 0 1536 0C1472 0 1408 0 1344 0C1280 0 1216 0 1152 0C1088 0 1024 0 960 0C896 0 832 0 768 0C704 0 640 0 576 0C512 0 448 0 384 0C320 0 256 0 192 0C128 0 64 0 32 0L0 0Z" fill="#273469"></path><path d="M0 660L32 676.2C64 692.3 128 724.7 192 731.8C256 739 320 721 384 688.7C448 656.3 512 609.7 576 613.3C640 617 704 671 768 662C832 653 896 581 960 563C1024 545 1088 581 1152 611.5C1216 642 1280 667 1344 715.5C1408 764 1472 836 1536 809C1600 782 1664 656 1728 612.8C1792 569.7 1856 609.3 1888 629.2L1920 649L1920 323L1888 323C1856 323 1792 323 1728 351.8C1664 380.7 1600 438.3 1536 456.3C1472 474.3 1408 452.7 1344 452.7C1280 452.7 1216 474.3 1152 425.7C1088 377 1024 258 960 256.2C896 254.3 832 369.7 768 400.3C704 431 640 377 576 380.7C512 384.3 448 445.7 384 496C320 546.3 256 585.7 192 573C128 560.3 64 495.7 32 463.3L0 431Z" fill="#222d59"></path><path d="M0 1081L32 1081C64 1081 128 1081 192 1081C256 1081 320 1081 384 1081C448 1081 512 1081 576 1081C640 1081 704 1081 768 1081C832 1081 896 1081 960 1081C1024 1081 1088 1081 1152 1081C1216 1081 1280 1081 1344 1081C1408 1081 1472 1081 1536 1081C1600 1081 1664 1081 1728 1081C1792 1081 1856 1081 1888 1081L1920 1081L1920 647L1888 627.2C1856 607.3 1792 567.7 1728 610.8C1664 654 1600 780 1536 807C1472 834 1408 762 1344 713.5C1280 665 1216 640 1152 609.5C1088 579 1024 543 960 561C896 579 832 651 768 660C704 669 640 615 576 611.3C512 607.7 448 654.3 384 686.7C320 719 256 737 192 729.8C128 722.7 64 690.3 32 674.2L0 658Z" fill="#1e2749"></path></svg>